/* XPM */
static char *_494649fc53149a788a6143b6adb13579VQXp590dTllL3T8[] = {
/* columns rows colors chars-per-pixel */
"40 40 5 2 ",
"   c #000000",
"h  c #1b191a",
"d  c #b5b3b1",
"c  c #545251",
"r  c #7b7879",
/* pixels */
"h h h h h h h h h h h h h h h h h h h h h h h h h h h h h h h h h h h h h h h h ",
"d d d d d d d d d d d d d d d d d d c h h d d d d d d d d d d d d d d d d d d d ",
"d d d d d d d d d d d d d d d d d c c h h d d d d d d d d d d d d d d d d d d d ",
"d d d d d d d d d d d d d d d d c c c h h d d d d d d d d d d d d d d d d d d d ",
"d d d d d d d d d d d d d d d c c c c h h d d d d d d d d d d d d d d d d d d d ",
"r r r r r r r r r r r r r r r c c c c h h d d d d r r r r r r r r r r r r r r r ",
"r r r r r r r r r r r r r r r c c c c h h d d d d r r r r r r r r r r r r r r r ",
"r r r r r r r r r r r r r r r c c c c h h d d d d r r r r r r r r r r r r r r r ",
"r r r r r r r r r r r r r r r c c c c h h d d d d r r r r r r r r r r r r r r r ",
"r r r r r r r r r r r r r r r c c c c h h d d d d r r r r r r r r r r r r r r r ",
"r r r r r r r r r r r r r r r c c c c h h d d d d r r r r r r r r r r r r r r r ",
"r r r r r r r r r r r r r r r c c c c h h d d d d r r r r r r r r r r r r r r r ",
"r r r r r r r r r r r r r r r c c c c h h d d d d r r r r r r r r r r r r r r r ",
"r r r r r r r r r r r r r r r c c c c h h d d d d r r r r r r r r r r r r r r r ",
"r r r r r r r r r r r r r r r c c c c h h d d d d r r r r r r r r r r r r r r r ",
"c c c c c c c c c c c c c c c c c c c h h d d d c c c c c c c c c c c c c c c c ",
"c c c c c c c c c c c c c c c c c c c h h d d c c c c c c c c c c c c c c c c c ",
"c c c c c c c c c c c c c c c c c c c h h d c c c c c c c c c c c c c c c c c c ",
"c c c c c c c c c c c c c c c c c c c h h c c c c c c c c c c c c c c c c c c c ",
"h h h h h h h h h h h h h h h h h h h h h h h h h h h h h h h h h h h h h h h h ",
"h h h h h h h h h h h h h h h h h h h h h h h h h h h h h h h h h h h h h h h h ",
"h d d d d d d d d d d d d d d d d d d d d d d d d d d d d d d d d d d d d d c h ",
"h d d d d d d d d d d d d d d d d d d d d d d d d d d d d d d d d d d d d c c h ",
"h d d d d d d d d d d d d d d d d d d d d d d d d d d d d d d d d d d d c c c h ",
"h d d d d d d d d d d d d d d d d d d d d d d d d d d d d d d d d d d c c c c h ",
"h d d d d r r r r r r r r r r r r r r r r r r r r r r r r r r r r r r c c c c h ",
"h d d d d r r r r r r r r r r r r r r r r r r r r r r r r r r r r r r c c c c h ",
"h d d d d r r r r r r r r r r r r r r r r r r r r r r r r r r r r r r c c c c h ",
"h d d d d r r r r r r r r r r r r r r r r r r r r r r r r r r r r r r c c c c h ",
"h d d d d r r r r r r r r r r r r r r r r r r r r r r r r r r r r r r c c c c h ",
"h d d d d r r r r r r r r r r r r r r r r r r r r r r r r r r r r r r c c c c h ",
"h d d d d r r r r r r r r r r r r r r r r r r r r r r r r r r r r r r c c c c h ",
"h d d d d r r r r r r r r r r r r r r r r r r r r r r r r r r r r r r c c c c h ",
"h d d d d r r r r r r r r r r r r r r r r r r r r r r r r r r r r r r c c c c h ",
"h d d d d r r r r r r r r r r r r r r r r r r r r r r r r r r r r r r c c c c h ",
"h d d d c c c c c c c c c c c c c c c c c c c c c c c c c c c c c c c c c c c h ",
"h d d c c c c c c c c c c c c c c c c c c c c c c c c c c c c c c c c c c c c h ",
"h d c c c c c c c c c c c c c c c c c c c c c c c c c c c c c c c c c c c c c h ",
"h c c c c c c c c c c c c c c c c c c c c c c c c c c c c c c c c c c c c c c h ",
"h h h h h h h h h h h h h h h h h h h h h h h h h h h h h h h h h h h h h h h h ",
};
